<svg id="Layer_5" enable-background="new 0 0 64 64" height="512" viewBox="0 0 64 64" width="512" xmlns="http://www.w3.org/2000/svg"><g><path d="m33 19h-2c-.552 0-1-.448-1-1h-2c0 1.654 1.346 3 3 3v2h2v-2c1.654 0 3-1.346 3-3s-1.346-3-3-3h-2c-.552 0-1-.448-1-1s.448-1 1-1h2c.552 0 1 .448 1 1h2c0-1.654-1.346-3-3-3v-2h-2v2c-1.654 0-3 1.346-3 3s1.346 3 3 3h2c.552 0 1 .448 1 1s-.448 1-1 1z"/><path d="m32 27c6.065 0 11-4.935 11-11s-4.935-11-11-11-11 4.935-11 11 4.935 11 11 11zm0-20c4.963 0 9 4.037 9 9s-4.037 9-9 9-9-4.037-9-9 4.037-9 9-9z"/><path d="m41.192 41.222c2.455-2.455 3.808-5.72 3.808-9.222 0-2.19-.561-4.335-1.62-6.254 2.251-2.624 3.62-6.025 3.62-9.746 0-.129-.016-.253-.019-.381 1.65 2.058 4.181 3.381 7.019 3.381 4.963 0 9-4.037 9-9s-4.037-9-9-9c-4.526 0-8.271 3.361-8.898 7.717-2.565-4.598-7.474-7.717-13.102-7.717s-10.537 3.119-13.102 7.717c-.627-4.356-4.372-7.717-8.898-7.717-4.963 0-9 4.037-9 9s4.037 9 9 9c2.838 0 5.369-1.323 7.019-3.381-.003.128-.019.252-.019.381 0 3.721 1.369 7.122 3.62 9.746-1.06 1.919-1.62 4.067-1.62 6.283 0 3.473 1.353 6.737 3.808 9.192l.364.364c.988.988 1.598 2.252 1.772 3.616-1.133.43-1.944 1.518-1.944 2.799 0 .771.301 1.468.78 2-.48.532-.78 1.229-.78 2 0 1.302.839 2.402 2 2.816v1.184c0 3.859 3.141 7 7 7s7-3.141 7-7v-1.184c1.161-.414 2-1.514 2-2.816 0-.771-.301-1.468-.78-2 .48-.532.78-1.229.78-2 0-1.281-.811-2.369-1.943-2.798.173-1.364.784-2.628 1.772-3.616zm9.004-25.354c.496-1.667 2.034-2.868 3.804-2.868s3.308 1.201 3.804 2.868c-1.097.713-2.402 1.132-3.804 1.132-1.403 0-2.707-.419-3.804-1.132zm1.804-6.868c0-1.103.897-2 2-2s2 .897 2 2-.897 2-2 2-2-.897-2-2zm2-6c3.859 0 7 3.141 7 7 0 1.694-.606 3.249-1.611 4.462-.541-1.145-1.42-2.086-2.511-2.695.691-.72 1.122-1.692 1.122-2.767 0-2.206-1.794-4-4-4s-4 1.794-4 4c0 1.075.431 2.047 1.122 2.766-1.091.609-1.97 1.55-2.511 2.695-1.005-1.212-1.611-2.767-1.611-4.461 0-3.859 3.141-7 7-7zm-47.804 12.868c.496-1.667 2.034-2.868 3.804-2.868s3.308 1.201 3.804 2.868c-1.097.713-2.402 1.132-3.804 1.132-1.403 0-2.707-.419-3.804-1.132zm1.804-6.868c0-1.103.897-2 2-2s2 .897 2 2-.897 2-2 2-2-.897-2-2zm7.389 5.462c-.541-1.145-1.42-2.086-2.511-2.695.691-.72 1.122-1.692 1.122-2.767 0-2.206-1.794-4-4-4s-4 1.794-4 4c0 1.075.431 2.047 1.122 2.766-1.091.609-1.97 1.55-2.511 2.695-1.005-1.212-1.611-2.767-1.611-4.461 0-3.859 3.141-7 7-7s7 3.141 7 7c0 1.694-.606 3.249-1.611 4.462zm16.611-11.462c7.168 0 13 5.832 13 13s-5.832 13-13 13-13-5.832-13-13 5.832-13 13-13zm-3 33h-1c-.552 0-1-.448-1-1s.448-1 1-1 1 .448 1 1zm4 9h-2v-7h2zm5 2c.552 0 1 .448 1 1s-.448 1-1 1h-12c-.552 0-1-.448-1-1s.448-1 1-1zm-6 14c-2.757 0-5-2.243-5-5v-1h10v1c0 2.757-2.243 5-5 5zm6-8h-12c-.552 0-1-.448-1-1s.448-1 1-1h12c.552 0 1 .448 1 1s-.448 1-1 1zm1.414-12.828c-1.318 1.318-2.128 3.005-2.347 4.828h-2.067v-7h1c1.654 0 3-1.346 3-3s-1.346-3-3-3-3 1.346-3 3v1h-2v-1c0-1.654-1.346-3-3-3s-3 1.346-3 3 1.346 3 3 3h1v7h-2.067c-.219-1.823-1.029-3.51-2.347-4.828l-.364-.364c-2.077-2.079-3.222-4.84-3.222-7.808 0-1.651.391-3.269 1.108-4.753 2.644 2.328 6.101 3.753 9.892 3.753s7.248-1.425 9.892-3.753c.717 1.486 1.108 3.107 1.108 4.782 0 2.938-1.145 5.7-3.222 7.778zm-4.414-4.172v-1c0-.552.448-1 1-1s1 .448 1 1-.448 1-1 1z"/><path d="m54 45c-4.963 0-9 4.037-9 9s4.037 9 9 9 9-4.037 9-9-4.037-9-9-9zm-3.804 14.868c.496-1.667 2.034-2.868 3.804-2.868s3.308 1.201 3.804 2.868c-1.097.713-2.402 1.132-3.804 1.132-1.403 0-2.707-.419-3.804-1.132zm1.804-6.868c0-1.103.897-2 2-2s2 .897 2 2-.897 2-2 2-2-.897-2-2zm7.389 5.462c-.541-1.145-1.42-2.086-2.511-2.695.691-.72 1.122-1.692 1.122-2.767 0-2.206-1.794-4-4-4s-4 1.794-4 4c0 1.075.431 2.047 1.122 2.766-1.091.609-1.97 1.55-2.511 2.695-1.005-1.212-1.611-2.767-1.611-4.461 0-3.859 3.141-7 7-7s7 3.141 7 7c0 1.694-.606 3.249-1.611 4.462z"/><path d="m10 45c-4.963 0-9 4.037-9 9s4.037 9 9 9 9-4.037 9-9-4.037-9-9-9zm-3.804 14.868c.496-1.667 2.034-2.868 3.804-2.868s3.308 1.201 3.804 2.868c-1.097.713-2.402 1.132-3.804 1.132-1.403 0-2.707-.419-3.804-1.132zm1.804-6.868c0-1.103.897-2 2-2s2 .897 2 2-.897 2-2 2-2-.897-2-2zm7.389 5.462c-.541-1.145-1.42-2.086-2.511-2.695.691-.72 1.122-1.692 1.122-2.767 0-2.206-1.794-4-4-4s-4 1.794-4 4c0 1.075.431 2.047 1.122 2.766-1.091.609-1.97 1.55-2.511 2.695-1.005-1.212-1.611-2.767-1.611-4.461 0-3.859 3.141-7 7-7s7 3.141 7 7c0 1.694-.606 3.249-1.611 4.462z"/><path d="m55 21h-2v7c0 .552-.448 1-1 1h-5v2h5c1.654 0 3-1.346 3-3z"/><path d="m55 43v-7c0-1.654-1.346-3-3-3h-5v2h5c.552 0 1 .448 1 1v7z"/><path d="m9 21v7c0 1.654 1.346 3 3 3h5v-2h-5c-.552 0-1-.448-1-1v-7z"/><path d="m9 43h2v-7c0-.552.448-1 1-1h5v-2h-5c-1.654 0-3 1.346-3 3z"/></g></svg>