<svg xmlns="http://www.w3.org/2000/svg" height="512pt" version="1.1" viewBox="0 0 512.00034 512" width="512pt">
<g id="surface1">
<path d="M 508.054688 367.894531 L 448.113281 334.929688 C 447.007812 334.320312 445.765625 334 444.5 334 L 437 334 L 437 287.667969 C 437 283.527344 433.640625 280.167969 429.5 280.167969 L 407 280.167969 L 407 231.835938 L 429.5 231.835938 C 433.640625 231.835938 437 228.476562 437 224.335938 L 437 178 L 444.5 178 C 445.765625 178 447.007812 177.679688 448.113281 177.070312 L 508.054688 144.105469 C 508.070312 144.097656 508.085938 144.089844 508.097656 144.082031 L 508.113281 144.070312 C 510.476562 142.773438 512 140.214844 512 137.5 L 512 137.484375 C 512 137.46875 512 137.449219 512 137.429688 L 512 7.5 C 512 3.359375 508.640625 0 504.5 0 L 374.5 0 C 373.335938 0 372.015625 0.304688 370.890625 0.925781 C 370.890625 0.925781 370.886719 0.925781 370.886719 0.929688 L 310.886719 33.929688 C 308.488281 35.246094 307 37.765625 307 40.5 L 307 55.5 L 284 55.5 C 279.859375 55.5 276.5 58.859375 276.5 63 L 276.5 85.5 L 235.5 85.5 L 235.5 63 C 235.5 58.859375 232.140625 55.5 228 55.5 L 205 55.5 L 205 40.5 C 205 37.765625 203.511719 35.246094 201.113281 33.929688 L 141.113281 0.929688 C 141.113281 0.925781 141.109375 0.925781 141.109375 0.925781 C 140.070312 0.355469 138.761719 0 137.5 0 L 64.25 0 C 60.109375 0 56.75 3.359375 56.75 7.5 C 56.75 11.640625 60.109375 15 64.25 15 L 130 15 L 130 130 L 15 130 L 15 15 L 32.25 15 C 36.390625 15 39.75 11.640625 39.75 7.5 C 39.75 3.359375 36.390625 0 32.25 0 L 7.5 0 C 3.359375 0 0 3.359375 0 7.5 L 0 137.429688 C 0 137.449219 0 137.46875 0 137.484375 L 0 137.5 C 0 140.347656 1.621094 142.851562 3.945312 144.105469 L 63.886719 177.070312 C 64.992188 177.679688 66.234375 178 67.5 178 L 75 178 L 75 224.332031 C 75 228.476562 78.359375 231.832031 82.5 231.832031 L 105 231.832031 L 105 280.167969 L 82.5 280.167969 C 78.359375 280.167969 75 283.523438 75 287.667969 L 75 334 L 67.5 334 C 66.234375 334 64.992188 334.320312 63.886719 334.929688 L 3.945312 367.894531 C 3.929688 367.902344 3.914062 367.910156 3.902344 367.921875 C 3.800781 368.019531 0 369.96875 0 374.5 L 0 374.515625 C 0 374.53125 0 374.550781 0 374.570312 L 0 504.5 C 0 508.640625 3.359375 512 7.5 512 L 137.5 512 C 138.722656 512 140.039062 511.664062 141.109375 511.074219 C 141.109375 511.074219 141.113281 511.074219 141.113281 511.070312 L 201.113281 478.070312 C 203.511719 476.753906 205 474.234375 205 471.5 L 205 456.5 L 228 456.5 C 232.140625 456.5 235.5 453.140625 235.5 449 L 235.5 426.5 L 276.5 426.5 L 276.5 449 C 276.5 453.140625 279.859375 456.5 284 456.5 L 307 456.5 L 307 471.5 C 307 474.234375 308.488281 476.753906 310.886719 478.070312 L 370.886719 511.070312 C 370.886719 511.074219 370.890625 511.074219 370.890625 511.074219 C 371.914062 511.636719 373.230469 512 374.5 512 L 504.5 512 C 508.640625 512 512 508.640625 512 504.5 L 512 479.5 C 512 475.359375 508.640625 472 504.5 472 C 500.359375 472 497 475.359375 497 479.5 L 497 497 L 382 497 L 382 382 L 497 382 L 497 448 C 497 452.140625 500.359375 455.5 504.5 455.5 C 508.640625 455.5 512 452.140625 512 448 L 512 374.570312 C 512.027344 371.886719 510.558594 369.246094 508.054688 367.894531 Z M 442.574219 349 L 475.300781 367 L 376.425781 367 L 343.699219 349 L 362 349 L 362 351 C 362 355.140625 365.359375 358.5 369.5 358.5 C 373.640625 358.5 377 355.140625 377 351 L 377 349 L 422 349 L 422 351 C 422 355.140625 425.359375 358.5 429.5 358.5 C 433.640625 358.5 437 355.140625 437 351 L 437 349 Z M 422 295.167969 L 422 334 L 377 334 L 377 295.167969 L 392 295.167969 L 392 298.222656 C 392 302.363281 395.359375 305.722656 399.5 305.722656 C 403.640625 305.722656 407 302.363281 407 298.222656 L 407 295.167969 Z M 422 216.835938 L 407 216.835938 L 407 213.777344 C 407 209.636719 403.640625 206.277344 399.5 206.277344 C 395.359375 206.277344 392 209.636719 392 213.777344 L 392 216.835938 L 377 216.835938 L 377 178 L 422 178 Z M 497 130 L 450 130 C 445.859375 130 442.5 133.359375 442.5 137.5 C 442.5 141.640625 445.859375 145 450 145 L 475.300781 145 L 442.574219 163 L 437 163 L 437 161 C 437 156.859375 433.640625 153.5 429.5 153.5 C 425.359375 153.5 422 156.859375 422 161 L 422 163 L 377 163 L 377 161 C 377 156.859375 373.640625 153.5 369.5 153.5 C 365.359375 153.5 362 156.859375 362 161 L 362 163 L 343.699219 163 L 376.425781 145 L 416 145 C 420.140625 145 423.5 141.640625 423.5 137.5 C 423.5 133.359375 420.140625 130 416 130 L 382 130 L 382 15 L 497 15 Z M 322 44.933594 L 367 20.183594 L 367 133.066406 L 322 157.816406 L 322 130.5 L 340 130.5 C 344.140625 130.5 347.5 127.140625 347.5 123 C 347.5 118.859375 344.140625 115.5 340 115.5 L 322 115.5 L 322 70.5 L 340 70.5 C 344.140625 70.5 347.5 67.140625 347.5 63 C 347.5 58.859375 344.140625 55.5 340 55.5 L 322 55.5 Z M 291.5 70.5 L 307 70.5 L 307 115.5 L 291.5 115.5 L 291.5 100.5 L 293.332031 100.5 C 297.476562 100.5 300.832031 97.140625 300.832031 93 C 300.832031 88.859375 297.476562 85.5 293.332031 85.5 L 291.5 85.5 Z M 220.5 70.5 L 220.5 85.5 L 218.667969 85.5 C 214.523438 85.5 211.167969 88.859375 211.167969 93 C 211.167969 97.140625 214.523438 100.5 218.667969 100.5 L 220.5 100.5 L 220.5 115.5 L 205 115.5 L 205 70.5 Z M 190 55.5 L 172 55.5 C 167.859375 55.5 164.5 58.859375 164.5 63 C 164.5 67.140625 167.859375 70.5 172 70.5 L 190 70.5 L 190 115.5 L 172 115.5 C 167.859375 115.5 164.5 118.859375 164.5 123 C 164.5 127.140625 167.859375 130.5 172 130.5 L 190 130.5 L 190 157.816406 L 145 133.066406 L 145 20.183594 L 190 44.933594 Z M 69.425781 163 L 36.699219 145 L 135.574219 145 L 168.300781 163 L 150 163 L 150 161 C 150 156.859375 146.640625 153.5 142.5 153.5 C 138.359375 153.5 135 156.859375 135 161 L 135 163 L 90 163 L 90 161 C 90 156.859375 86.640625 153.5 82.5 153.5 C 78.359375 153.5 75 156.859375 75 161 L 75 163 Z M 90 216.835938 L 90 178 L 135 178 L 135 216.832031 L 120 216.832031 L 120 213.777344 C 120 209.636719 116.640625 206.277344 112.5 206.277344 C 108.359375 206.277344 105 209.636719 105 213.777344 L 105 216.832031 L 90 216.832031 Z M 90 295.167969 L 105 295.167969 L 105 298.222656 C 105 302.363281 108.359375 305.722656 112.5 305.722656 C 116.640625 305.722656 120 302.363281 120 298.222656 L 120 295.167969 L 135 295.167969 L 135 334 L 90 334 Z M 69.425781 349 L 75 349 L 75 351 C 75 355.140625 78.359375 358.5 82.5 358.5 C 86.640625 358.5 90 355.140625 90 351 L 90 349 L 135 349 L 135 351 C 135 355.140625 138.359375 358.5 142.5 358.5 C 146.640625 358.5 150 355.140625 150 351 L 150 349 L 168.300781 349 L 135.574219 367 L 36.699219 367 Z M 15 382 L 130 382 L 130 497 L 15 497 Z M 190 467.066406 L 145 491.816406 L 145 378.933594 L 190 354.183594 L 190 381.5 L 172 381.5 C 167.859375 381.5 164.5 384.859375 164.5 389 C 164.5 393.140625 167.859375 396.5 172 396.5 L 190 396.5 L 190 441.5 L 172 441.5 C 167.859375 441.5 164.5 444.859375 164.5 449 C 164.5 453.140625 167.859375 456.5 172 456.5 L 190 456.5 Z M 220.5 441.5 L 205 441.5 L 205 396.5 L 220.5 396.5 L 220.5 411.5 L 218.667969 411.5 C 214.523438 411.5 211.167969 414.859375 211.167969 419 C 211.167969 423.140625 214.523438 426.5 218.667969 426.5 L 220.5 426.5 Z M 235.5 411.5 L 235.5 389 C 235.5 384.859375 232.140625 381.5 228 381.5 L 205 381.5 L 205 341.5 C 205 337.4375 201.703125 334.039062 197.566406 334.003906 C 197.542969 334.003906 197.523438 334 197.5 334 L 150 334 L 150 287.667969 C 150 283.523438 146.640625 280.167969 142.5 280.167969 L 120 280.167969 L 120 231.835938 L 142.5 231.835938 C 146.640625 231.835938 150 228.476562 150 224.335938 L 150 178 L 197.5 178 C 201.601562 178 205 174.652344 205 170.5 L 205 130.5 L 228 130.5 C 232.140625 130.5 235.5 127.140625 235.5 123 L 235.5 100.5 L 276.5 100.5 L 276.5 123 C 276.5 127.140625 279.859375 130.5 284 130.5 L 307 130.5 L 307 170.5 C 307 174.628906 310.378906 178 314.5 178 L 362 178 L 362 224.332031 C 362 228.476562 365.359375 231.832031 369.5 231.832031 L 392 231.832031 L 392 280.167969 L 369.5 280.167969 C 365.359375 280.167969 362 283.523438 362 287.667969 L 362 334 L 314.5 334 C 314.480469 334 314.457031 334.003906 314.4375 334.003906 C 310.3125 334.035156 307 337.417969 307 341.5 L 307 381.5 L 284 381.5 C 279.859375 381.5 276.5 384.859375 276.5 389 L 276.5 411.5 Z M 291.5 441.5 L 291.5 426.5 L 293.332031 426.5 C 297.476562 426.5 300.832031 423.140625 300.832031 419 C 300.832031 414.859375 297.476562 411.5 293.332031 411.5 L 291.5 411.5 L 291.5 396.5 L 307 396.5 L 307 441.5 Z M 322 456.5 L 340 456.5 C 344.140625 456.5 347.5 453.140625 347.5 449 C 347.5 444.859375 344.140625 441.5 340 441.5 L 322 441.5 L 322 396.5 L 340 396.5 C 344.140625 396.5 347.5 393.140625 347.5 389 C 347.5 384.859375 344.140625 381.5 340 381.5 L 322 381.5 L 322 354.183594 L 367 378.933594 L 367 491.816406 L 322 467.066406 Z M 322 456.5 " style=" stroke:none;fill-rule:nonzero;fill:rgb(0%,0%,0%);fill-opacity:1;" />
</g>
</svg>