<svg id="Layer_1_1_" enable-background="new 0 0 64 64" height="512" viewBox="0 0 64 64" width="512" xmlns="http://www.w3.org/2000/svg"><path d="m22 57c-.551 0-1-.449-1-1h-2c0 1.302.839 2.402 2 2.816v1.184h2v-1.184c1.161-.414 2-1.514 2-2.816 0-1.654-1.346-3-3-3-.551 0-1-.449-1-1s.449-1 1-1 1 .449 1 1h2c0-1.302-.839-2.402-2-2.816v-1.184h-2v1.184c-1.161.414-2 1.514-2 2.816 0 1.654 1.346 3 3 3 .551 0 1 .449 1 1s-.449 1-1 1z"/><path d="m16 63c.552 0 1-.448 1-1v-.531c1.466.982 3.199 1.531 5 1.531 4.962 0 9-4.038 9-9s-4.038-9-9-9c-2.627 0-5.073 1.133-6.761 3.073-.547-.457-1.189-.783-1.913-.925 1.034-1.079 1.674-2.539 1.674-4.148 0-3.309-2.691-6-6-6s-6 2.691-6 6c0 1.584.621 3.022 1.628 4.096-.869.172-1.684.573-2.325 1.209-.841.833-1.303 1.938-1.303 3.112v10.583c0 .552.448 1 1 1zm6-16c3.86 0 7 3.14 7 7s-3.14 7-7 7c-1.892 0-3.69-.772-5-2.116v-6.926c-.021-.825-.214-1.573-.518-2.236 1.311-1.708 3.33-2.722 5.518-2.722zm-13-8c1.842 0 3.381 1.258 3.844 2.955-1.169-.153-2.272-.725-3.095-1.628-.378-.416-1.099-.415-1.479 0-.827.909-1.938 1.483-3.115 1.631.462-1.699 2.002-2.958 3.845-2.958zm.01 3.378c1.104.911 2.456 1.445 3.865 1.569-.429 1.748-1.997 3.053-3.875 3.053-1.877 0-3.445-1.305-3.874-3.051 1.415-.121 2.775-.655 3.884-1.571zm.939 11.396-.949 1.423-.949-1.423.791-4.747.315.003zm-6.949-2.357c0-.637.252-1.238.711-1.693.477-.472 1.089-.727 1.794-.724l1.313.011-.804 4.825c-.042.251.013.508.154.719l2 3c.186.278.498.445.832.445s.646-.167.832-.445l2-3c.141-.211.196-.468.154-.719l-.798-4.79 1.286.01c1.465.012 2.48 1.198 2.526 2.927v9.017h-12z"/><path d="m54 51c.551 0 1 .449 1 1h2c0-1.302-.839-2.402-2-2.816v-1.184h-2v1.184c-1.161.414-2 1.514-2 2.816 0 1.654 1.346 3 3 3 .551 0 1 .449 1 1s-.449 1-1 1-1-.449-1-1h-2c0 1.302.839 2.402 2 2.816v1.184h2v-1.184c1.161-.414 2-1.514 2-2.816 0-1.654-1.346-3-3-3-.551 0-1-.449-1-1s.449-1 1-1z"/><path d="m54 45c-2.627 0-5.073 1.133-6.761 3.073-.547-.457-1.189-.783-1.913-.925 1.034-1.079 1.674-2.539 1.674-4.148 0-3.309-2.691-6-6-6s-6 2.691-6 6c0 1.583.621 3.021 1.626 4.094-.873.171-1.681.573-2.324 1.21-.84.834-1.302 1.939-1.302 3.113v10.583c0 .552.448 1 1 1h14c.552 0 1-.448 1-1v-.531c1.466.982 3.199 1.531 5 1.531 4.962 0 9-4.038 9-9s-4.038-9-9-9zm-13-6c1.842 0 3.381 1.258 3.844 2.955-1.169-.153-2.272-.725-3.095-1.628-.378-.416-1.099-.415-1.479 0-.827.909-1.938 1.483-3.115 1.631.462-1.699 2.002-2.958 3.845-2.958zm.01 3.378c1.104.911 2.456 1.445 3.865 1.569-.429 1.748-1.997 3.053-3.875 3.053-1.877 0-3.445-1.305-3.874-3.051 1.415-.121 2.775-.655 3.884-1.571zm.939 11.396-.949 1.423-.949-1.423.791-4.747.315.003zm5.051 7.226h-12v-9.583c0-.637.252-1.238.711-1.693.472-.468 1.1-.725 1.772-.725h.021l1.313.011-.804 4.825c-.042.251.013.508.154.719l2 3c.187.279.499.446.833.446s.646-.167.832-.445l2-3c.141-.211.196-.468.154-.719l-.798-4.79 1.286.01c1.465.012 2.48 1.198 2.526 2.927zm7 0c-1.892 0-3.69-.772-5-2.116v-6.926c-.021-.825-.214-1.573-.518-2.236 1.311-1.708 3.33-2.722 5.518-2.722 3.86 0 7 3.14 7 7s-3.14 7-7 7z"/><path d="m6 4v28c0 1.654 1.346 3 3 3h46c1.654 0 3-1.346 3-3v-28c0-1.654-1.346-3-3-3h-46c-1.654 0-3 1.346-3 3zm50 0v28c0 .551-.449 1-1 1h-46c-.551 0-1-.449-1-1v-28c0-.551.449-1 1-1h46c.551 0 1 .449 1 1z"/><path d="m50 25h-8c-1.654 0-3 1.346-3 3v2c0 .552.448 1 1 1h12c.552 0 1-.448 1-1v-2c0-1.654-1.346-3-3-3zm1 4h-10v-1c0-.551.449-1 1-1h8c.551 0 1 .449 1 1z"/><path d="m13.201 29.627c.195.195.451.293.707.293s.512-.098.707-.293l7.778-7.778.707.707-.707.707c-.391.391-.391 1.023 0 1.414l2.121 2.121c.39.39.902.585 1.414.585.513 0 1.025-.195 1.415-.585l7.071-7.071c.78-.78.78-2.049 0-2.829l-2.121-2.121c-.391-.391-1.023-.391-1.414 0l-.707.707-5.657-5.657.707-.707c.391-.391.391-1.023 0-1.414l-2.121-2.121c-.78-.781-2.05-.781-2.829 0l-7.071 7.071c-.78.78-.78 2.049 0 2.829l2.121 2.121c.195.195.451.293.707.293s.512-.098.707-.293l.707-.707.707.707-7.778 7.778c-.391.391-.391 1.023 0 1.414zm18.385-12.728 1.414 1.415-7.07 7.072-1.415-1.415zm-2.829 0-4.243 4.243-5.657-5.657 4.243-4.243zm-12.728-1.414-1.414-1.415 7.072-7.07 1.414 1.414zm3.536 3.536 1.415 1.415-7.071 7.071-1.415-1.415z"/><path d="m45 17h2v4h-2z"/><path d="m49.586 20.414h4v2h-4z" transform="matrix(.707 -.707 .707 .707 -.033 42.749)"/><path d="m39.414 19.414h2v4h-2z" transform="matrix(.707 -.707 .707 .707 -3.305 34.849)"/></svg>