<svg id="Слой_1" data-name="Слой 1" xmlns="http://www.w3.org/2000/svg" viewBox="0 0 100 100"><title>testМонтажная область 2</title><path d="M84.43,34.59a34.43,34.43,0,0,0-68.78,2.23,34.85,34.85,0,0,0,.24,4.07l-7,14.2a3.74,3.74,0,0,0,3.25,5.39c1.91.06,3.23.1,4.17.1v3.76c0,11.71,2.89,18.49,17.59,18.49l6.37.21V91a1.5,1.5,0,0,0,3,0V81.6a1.5,1.5,0,0,0-1.45-1.5l-7.87-.26c-11.36,0-14.64-3.47-14.64-15.49l0-5.31a1.5,1.5,0,0,0-1.64-1.5l-.2,0c-.3,0-1.38,0-5.25-.09a.73.73,0,0,1-.62-.36.72.72,0,0,1,0-.71l7.19-14.61a1.5,1.5,0,0,0,.14-.86,31.77,31.77,0,0,1-.27-4.14A31.43,31.43,0,1,1,70.88,60.27a1.5,1.5,0,0,0-.51,1.13l0,29.42a1.48,1.48,0,0,0,1.5,1.5,1.5,1.5,0,0,0,1.5-1.5l0-28.76A34.07,34.07,0,0,0,84.43,34.59Z"/><path d="M73.46,32.35l-6-5a1.5,1.5,0,0,0-1.92,0l-6,5a1.5,1.5,0,1,0,1.92,2.3L65,31.71c0,.08,0,.16,0,.24A14.2,14.2,0,0,1,50.68,46a14.36,14.36,0,0,1-10.13-4.12A1.5,1.5,0,1,0,38.45,44,17.37,17.37,0,0,0,68,31.95c0-.09,0-.17,0-.26l3.55,3a1.5,1.5,0,1,0,1.92-2.3Z"/><path d="M41.65,31.54a1.5,1.5,0,0,0-2.11-.19l-3.43,2.86a14.84,14.84,0,0,1-.11-1.7A14.43,14.43,0,0,1,50.33,18a14.14,14.14,0,0,1,10.11,4.23,1.5,1.5,0,0,0,2.13-2.11A17.12,17.12,0,0,0,50.33,15,17.44,17.44,0,0,0,33,32.51a17.85,17.85,0,0,0,.11,1.88l-3.65-3a1.5,1.5,0,0,0-1.92,2.3l6,5a1.5,1.5,0,0,0,1.92,0l6-5A1.5,1.5,0,0,0,41.65,31.54Z"/></svg>