<svg id="Icons" height="512" viewBox="0 0 70 70" width="512" xmlns="http://www.w3.org/2000/svg"><path d="m69 70h-68a1 1 0 0 1 -1-1v-5a1 1 0 0 1 1-1h68a1 1 0 0 1 1 1v5a1 1 0 0 1 -1 1zm-67-2h66v-3h-66z"/><path d="m64.81 65h-59.62a1 1 0 0 1 -1-1v-5a1 1 0 0 1 1-1h59.62a1 1 0 0 1 1 1v5a1 1 0 0 1 -1 1zm-58.62-2h57.62v-3h-57.62z"/><path d="m64.81 21.6h-59.62a1 1 0 0 1 -1-1v-5.29a1 1 0 0 1 .57-.9l29.81-14.31a1 1 0 0 1 .86 0l29.81 14.31a1 1 0 0 1 .57.9v5.29a1 1 0 0 1 -1 1zm-58.62-2h57.62v-3.66l-28.81-13.83-28.81 13.83z"/><path d="m60.08 60h-10.72a1 1 0 0 1 -1-1v-4.68a1 1 0 0 1 1-1h10.72a1 1 0 0 1 1 1v4.68a1 1 0 0 1 -1 1zm-9.72-2h8.72v-2.68h-8.72z"/><path d="m60.08 26.28h-10.72a1 1 0 0 1 -1-1v-4.68a1 1 0 0 1 1-1h10.72a1 1 0 0 1 1 1v4.68a1 1 0 0 1 -1 1zm-9.72-2h8.72v-2.68h-8.72z"/><path d="m58 55.32h-6.53a1 1 0 0 1 -1-1v-29a1 1 0 0 1 1-1h6.53a1 1 0 0 1 1 1v29a1 1 0 0 1 -1 1zm-5.51-2h4.51v-27h-4.53z"/><path d="m20.64 60h-10.72a1 1 0 0 1 -1-1v-4.68a1 1 0 0 1 1-1h10.72a1 1 0 0 1 1 1v4.68a1 1 0 0 1 -1 1zm-9.72-2h8.72v-2.68h-8.72z"/><path d="m20.64 26.28h-10.72a1 1 0 0 1 -1-1v-4.68a1 1 0 0 1 1-1h10.72a1 1 0 0 1 1 1v4.68a1 1 0 0 1 -1 1zm-9.72-2h8.72v-2.68h-8.72z"/><path d="m18.53 55.32h-6.53a1 1 0 0 1 -1-1v-29a1 1 0 0 1 1-1h6.51a1 1 0 0 1 1 1v29a1 1 0 0 1 -.98 1zm-5.51-2h4.51v-27h-4.53z"/><path d="m35 48.76a5 5 0 0 1 -5-5 1 1 0 0 1 2 0 3 3 0 0 0 6 0c0-1.41-.95-2.29-3.28-3-3.1-1-4.68-2.64-4.68-4.93a5 5 0 0 1 10 0 1 1 0 0 1 -2 0 3 3 0 0 0 -6 0c0 .85.34 2.09 3.28 3 2 .64 4.68 1.84 4.68 4.93a5 5 0 0 1 -5 5z"/><path d="m35 32.85a1 1 0 0 1 -1-1v-2.06a1 1 0 1 1 2 0v2.06a1 1 0 0 1 -1 1z"/><path d="m35 50.82a1 1 0 0 1 -1-1v-2.06a1 1 0 1 1 2 0v2.06a1 1 0 0 1 -1 1z"/><path d="m35 16.92a4.62 4.62 0 1 1 4.62-4.62 4.63 4.63 0 0 1 -4.62 4.62zm0-7.24a2.62 2.62 0 1 0 2.62 2.62 2.62 2.62 0 0 0 -2.62-2.62z"/></svg>